<svg xmlns="http://www.w3.org/2000/svg" viewBox="0 0 256 256">
  <circle cx="128" cy="128" r="128" fill="#FF7F66"/>
  <path d="M128 60c-35 0-60 25-60 60v20c0 25 15 40 30 45 10 3 20 3 30 3s20 0 30-3c15-5 30-20 30-45v-20c0-35-25-60-60-60z" fill="#000"/>
  <ellipse cx="100" cy="110" rx="8" ry="12" fill="#000"/>
  <ellipse cx="156" cy="110" rx="8" ry="12" fill="#000"/>
  <path d="M85 75c-12-8-25-10-30-5-6 6-4 18 5 28 8 8 15 10 20 8z" fill="#000"/>
  <path d="M171 75c12-8 25-10 30-5 6 6 4 18-5 28-8 8-15 10-20 8z" fill="#000"/>
  <ellipse cx="128" cy="145" rx="18" ry="14" fill="#FF69B4"/>
  <path d="M110 135c-8 0-12 5-12 10s4 8 10 8c4 0 7-2 9-4 2 2 5 4 9 4 6 0 10-3 10-8s-4-10-12-10c-3 0-6 1-7 2-1-1-4-2-7-2z" fill="#000"/>
</svg>